PathFileType	4	(x/y/z)	S05_PSF_T01
DataRate	CameraRate	NumFrames	NumMarkers	Units	OrigDataRate	OrigDataStartFrame	OrigNumFrames
240	240	7	50	mm	240	374	427
Frame#	Time	Sternum			R.Acromium			L.Acromium			Top.Head			R.ASIS			L.ASIS			R.PSIS			L.PSIS			R.Great.Tro			L.Great.Tro			R.Iliac.Crest			L.Iliac.Crest			V.Sacral			R.Thigh.Upper.Post			R.Thigh.Lower.Ant			R.Thigh.Lower.Post			R.Thigh.Upper.Ant			R.Knee.Lat			R.Knee.Med			R.Shank.Upper.Post			R.Shank.Lower.Ant			R.Shank.Lower.Post			R.Shank.Upper.Ant			R.Ankle.Lat			R.Ankle.Med			R.Heel.Upper			R.Heel.Med			R.Heel.Lat			R.Toe.Lat			R.Toe.Med			R.Toe.Tip			L.Thigh.Upper.Post			L.Thigh.Lower.Ant			L.Thigh.Lower.Post			L.Thigh.Upper.Ant			L.Knee.Lat			L.Shank.Upper.Post			L.Shank.Lower.Ant			L.Shank.Lower.Post			L.Shank.Upper.Ant			L.Ankle.Lat			L.Ankle.Med			L.Heel.Upper			L.Heel.Med			L.Heel.Lat			L.Toe.Lat			L.Toe.Med			L.Toe.Tip			Cervical.Spine			Back			
		X1	Y1	Z1	X2	Y2	Z2	X3	Y3	Z3	X4	Y4	Z4	X5	Y5	Z5	X6	Y6	Z6	X7	Y7	Z7	X8	Y8	Z8	X9	Y9	Z9	X10	Y10	Z10	X11	Y11	Z11	X12	Y12	Z12	X13	Y13	Z13	X14	Y14	Z14	X15	Y15	Z15	X16	Y16	Z16	X17	Y17	Z17	X18	Y18	Z18	X19	Y19	Z19	X20	Y20	Z20	X21	Y21	Z21	X22	Y22	Z22	X23	Y23	Z23	X24	Y24	Z24	X25	Y25	Z25	X26	Y26	Z26	X27	Y27	Z27	X28	Y28	Z28	X29	Y29	Z29	X30	Y30	Z30	X31	Y31	Z31	X32	Y32	Z32	X33	Y33	Z33	X34	Y34	Z34	X35	Y35	Z35	X36	Y36	Z36	X37	Y37	Z37	X38	Y38	Z38	X39	Y39	Z39	X40	Y40	Z40	X41	Y41	Z41	X42	Y42	Z42	X43	Y43	Z43	X44	Y44	Z44	X45	Y45	Z45	X46	Y46	Z46	X47	Y47	Z47	X48	Y48	Z48	X49	Y49	Z49	X50	Y50	Z50	

374	1.5542	453.38	1267.3	275.4	368.44	1532.5	426.11	354.3	1541.6	99.201	370.04	1837.1	246.63	388.13	1018.6	405.68	388.49	1020.8	155.86	187.5	1033.9	324.19	188	1040	232.76	316.37	935.93	474.23	291.95	943.12	87.477	298.12	1103.8	445.35	300.89	1098	110.9	175.29	1001.2	289.89	436.24	740.21	478.05	509.01	690	426.82	455.18	653.14	459.51	485.3	775.08	444.49	475.05	556.6	436.26	494.25	545.23	305.45	431.82	310.69	416.1	500.98	255.73	429.32	445.73	236.45	402.36	487.79	331.31	441.38	510.07	146.37	413.02	528.7	175.05	328.55	464.66	81.073	341.14	488.46	55.662	315.24	473.38	53.589	378.22	622.19	79.743	460.66	673.34	107.06	353.89	718.03	139.63	410.73	267.76	708.28	99.831	339.66	627.39	123.65	268.01	614.21	119.95	346.2	715.74	102.18	266.31	520.31	130.69	176.87	328.52	139.65	236.51	262.56	143.86	166.95	258.53	160.94	242.58	331.87	128.26	180.55	115.33	174.95	219.35	132.75	259.52	119.97	71.901	232.04	134.2	45.964	263.15	120.49	44.401	203.28	298.71	37.214	136.97	330.73	49.722	254.87	390.45	55.754	196.02	312.58	1576	266.49	194.07	1302.8	271.17
375	1.5583	458.54	1266.6	275.4	373.56	1531.8	426.25	359.3	1541.1	99.4	375.2	1836.4	246.98	393.52	1017.7	405.65	393.42	1020.3	155.85	192.78	1033.4	324.54	193.16	1039.7	233.16	321.66	934.95	474.14	296.51	942.93	87.508	303.71	1103	445.47	305.79	1097.6	111.07	180.45	1000.8	290.19	440.34	738.48	477.58	512.73	687.98	426.11	458.83	651.35	458.93	489.46	773.15	443.91	479.18	555.18	435.37	498.08	543.82	304.24	442.2	308.39	416.32	512.87	255.45	429.65	458.08	234.47	402.87	497.61	330.69	441.4	525.27	146.06	413.79	542.8	174.92	329.21	481.51	79.171	342.32	505.97	54.34	316.43	491.09	52.102	379.49	639.42	82.784	461.34	689.45	111.13	354.41	733.37	145.23	410.96	270.83	708.32	99.751	342.27	627.03	123.62	270.56	614.26	119.89	349.33	715.33	102.06	268.1	520.28	130.68	177.76	328.86	139.8	237.12	262.64	143.82	167.59	258.91	161.09	243.46	331.92	128.24	180.73	115.48	175.06	219.71	132.81	259.57	120.08	72.034	232.18	134.31	46.056	263.27	120.56	44.55	203.4	298.72	37.178	136.95	330.81	49.646	254.85	390.54	55.582	195.99	317.71	1575.3	266.64	199.21	1302.1	271.33
376	1.5625	463.71	1265.9	275.4	378.69	1531	426.4	364.29	1540.6	99.624	380.37	1835.6	247.35	398.92	1016.9	405.63	398.36	1019.7	155.84	198.08	1032.9	324.9	198.33	1039.3	233.58	326.98	933.92	474.05	301.08	942.72	87.542	309.33	1102.2	445.6	310.71	1097.1	111.24	185.61	1000.4	290.5	444.45	736.7	477.1	516.42	685.89	425.39	462.47	649.5	458.37	493.62	771.17	443.31	483.32	553.72	434.49	501.87	542.35	303.03	452.48	306.23	416.61	524.61	255.31	430	470.29	232.69	403.43	507.32	330.17	441.43	540.25	145.97	414.55	556.66	174.97	329.87	498.11	77.564	343.52	523.21	53.313	317.62	508.55	50.918	380.77	656.34	86.03	461.97	705.2	115.35	354.83	748.35	150.93	411.07	273.93	708.35	99.678	344.9	626.65	123.61	273.14	614.29	119.85	352.47	714.9	101.95	269.91	520.25	130.67	178.67	329.19	139.97	237.74	262.72	143.79	168.25	259.29	161.25	244.34	331.98	128.23	180.92	115.64	175.19	220.07	132.87	259.63	120.2	72.164	232.33	134.42	46.149	263.4	120.63	44.698	203.54	298.74	37.145	136.93	330.88	49.57	254.83	390.62	55.412	195.95	322.83	1574.6	266.81	204.37	1301.4	271.51
377	1.5667	468.89	1265.2	275.42	383.82	1530.2	426.57	369.27	1540	99.872	385.53	1834.9	247.73	404.33	1015.9	405.61	403.31	1019.1	155.83	203.39	1032.3	325.27	203.52	1038.9	234	332.32	932.84	473.95	305.67	942.48	87.578	314.97	1101.4	445.72	315.63	1096.5	111.43	190.8	999.88	290.81	448.58	734.88	476.63	520.11	683.75	424.65	466.11	647.6	457.82	497.78	769.13	442.68	487.48	552.24	433.63	505.62	540.84	301.82	462.67	304.21	416.94	536.19	255.31	430.34	482.33	231.07	404.03	516.93	329.75	441.47	554.98	146.08	415.3	570.26	175.19	330.52	514.44	76.237	344.73	540.12	52.565	318.8	525.73	50.022	382.04	672.91	89.447	462.53	720.55	119.7	355.17	762.95	156.7	411.09	277.06	708.36	99.614	347.53	626.25	123.62	275.75	614.31	119.82	355.64	714.45	101.84	271.76	520.21	130.68	179.6	329.53	140.15	238.38	262.8	143.77	168.92	259.68	161.43	245.25	332.04	128.23	181.1	115.81	175.32	220.43	132.93	259.71	120.32	72.292	232.49	134.53	46.243	263.54	120.69	44.846	203.68	298.75	37.113	136.92	330.96	49.491	254.8	390.7	55.244	195.91	327.96	1573.8	267	209.53	1300.6	271.7
378	1.5708	474.08	1264.4	275.45	388.96	1529.4	426.76	374.24	1539.4	100.14	390.7	1834.1	248.13	409.75	1015	405.59	408.28	1018.5	155.84	208.7	1031.7	325.65	208.71	1038.5	234.44	337.69	931.71	473.85	310.28	942.21	87.617	320.64	1100.5	445.85	320.56	1096	111.63	195.99	999.35	291.14	452.74	733.03	476.16	523.82	681.57	423.9	469.79	645.68	457.27	501.96	767.05	442.04	491.66	550.75	432.8	509.37	539.29	300.63	472.74	302.34	417.33	547.59	255.44	430.67	494.2	229.64	404.66	526.42	329.42	441.52	569.44	146.39	416.03	583.58	175.56	331.15	530.45	75.173	345.93	556.67	52.075	319.96	542.58	49.394	383.3	689.12	92.998	463.03	735.48	124.13	355.4	777.15	162.49	410.99	280.22	708.34	99.559	350.19	625.83	123.64	278.39	614.32	119.8	358.84	713.98	101.74	273.64	520.16	130.7	180.55	329.87	140.34	239.02	262.89	143.76	169.61	260.07	161.63	246.17	332.09	128.24	181.29	115.97	175.46	220.81	132.98	259.79	120.44	72.419	232.67	134.65	46.337	263.7	120.76	44.994	203.84	298.76	37.084	136.9	331.04	49.41	254.78	390.79	55.078	195.88	333.08	1573	267.21	214.7	1299.8	271.91
379	1.575	479.29	1263.6	275.5	394.11	1528.5	426.97	379.2	1538.8	100.44	395.86	1833.3	248.55	415.18	1014	405.59	413.26	1017.9	155.85	214.02	1031	326.03	213.91	1038	234.88	343.09	930.54	473.75	314.9	941.91	87.659	326.32	1099.6	445.99	325.5	1095.4	111.83	201.2	998.77	291.47	456.95	731.16	475.7	527.57	679.37	423.14	473.52	643.73	456.75	506.18	764.96	441.37	495.9	549.26	432	513.11	537.71	299.47	482.68	300.61	417.76	558.8	255.67	430.99	505.86	228.36	405.32	535.78	329.18	441.57	583.59	146.85	416.73	596.59	176.06	331.76	546.1	74.352	347.11	572.83	51.818	321.09	559.06	49.01	384.53	704.91	96.64	463.45	749.97	128.59	355.53	790.93	168.25	410.8	283.41	708.31	99.512	352.88	625.39	123.67	281.06	614.3	119.79	362.06	713.49	101.65	275.56	520.1	130.73	181.53	330.21	140.55	239.69	262.96	143.76	170.32	260.46	161.83	247.12	332.13	128.26	181.48	116.15	175.61	221.2	133.04	259.88	120.56	72.544	232.87	134.77	46.432	263.86	120.83	45.143	204.02	298.76	37.057	136.89	331.12	49.325	254.75	390.87	54.912	195.84	338.21	1572.2	267.44	219.87	1299	272.13
380	1.5792	484.5	1262.8	275.56	399.27	1527.6	427.19	384.17	1538.2	100.76	401.02	1832.4	248.99	420.61	1013	405.58	418.26	1017.2	155.87	219.35	1030.3	326.43	219.11	1037.5	235.32	348.51	929.33	473.65	319.55	941.59	87.703	332.02	1098.6	446.12	330.44	1094.8	112.04	206.41	998.14	291.81	461.22	729.3	475.24	531.36	677.18	422.36	477.32	641.79	456.23	510.45	762.88	440.69	500.21	547.79	431.23	516.87	536.12	298.34	492.47	299.01	418.22	569.79	256	431.3	517.3	227.24	406	545	329.01	441.64	597.41	147.46	417.39	609.27	176.67	332.34	561.36	73.749	348.26	588.55	51.769	322.18	575.12	48.842	385.71	720.26	100.33	463.8	764	133.06	355.56	804.27	173.94	410.51	286.63	708.26	99.474	355.6	624.93	123.71	283.77	614.27	119.79	365.32	712.98	101.56	277.52	520.03	130.78	182.53	330.55	140.77	240.38	263.04	143.77	171.06	260.86	162.05	248.09	332.18	128.29	181.68	116.32	175.77	221.6	133.1	259.98	120.68	72.668	233.08	134.9	46.528	264.05	120.9	45.293	204.21	298.77	37.032	136.88	331.19	49.235	254.73	390.95	54.747	195.8	343.33	1571.3	267.69	225.05	1298.1	272.37
